<svg width="1651" height="972" viewBox="0 0 1651 972" fill="none" xmlns="http://www.w3.org/2000/svg">
<g filter="url(#filter0_d_19_35)">
<g filter="url(#filter1_f_19_35)">
<path d="M254.793 496.285V772H200V496.285H254.793ZM254.793 386V441.143H200V386H254.793Z" fill="#5AD0FD"/>
<path d="M575.314 661.714V716.857H520.52V661.714H575.314ZM410.933 441.143V772H395.044C383.72 772 374.404 768.324 367.098 760.971C359.793 753.619 356.14 744.245 356.14 732.848V441.143H410.933ZM520.52 716.857V772H410.933V716.857H520.52ZM520.52 496.285V551.428H301.347V496.285H520.52Z" fill="#5AD0FD"/>
<path d="M824.795 496.285H879.592V772H824.795V496.285ZM605.621 603.814C605.621 580.286 611.648 560.067 623.704 543.157C635.758 526.247 652.196 513.38 673.017 504.557C694.204 495.367 717.583 490.771 743.153 490.771C768.358 490.771 791.371 495.367 812.193 504.557C833.015 513.38 849.453 526.247 861.507 543.157C873.561 560.067 879.592 580.286 879.592 603.814V658.406C879.592 681.933 873.561 702.336 861.507 719.614C849.453 736.524 833.015 749.575 812.193 758.765C791.371 767.588 768.358 772 743.153 772C717.583 772 694.204 767.588 673.017 758.765C652.196 749.575 635.758 736.524 623.704 719.614C611.648 702.336 605.621 681.933 605.621 658.406V603.814ZM660.415 650.685C660.415 675.316 668.816 692.594 685.62 702.52C702.789 712.078 721.966 716.857 743.153 716.857C763.609 716.857 782.239 712.078 799.042 702.52C815.846 692.594 824.248 675.316 824.248 650.685V611.534C824.248 586.903 815.846 569.809 799.042 560.251C782.604 550.694 763.974 545.914 743.153 545.914C721.966 545.914 702.789 550.694 685.62 560.251C668.816 569.809 660.415 586.903 660.415 611.534V650.685ZM770.002 603.814V658.957H715.208V603.814H770.002Z" fill="#5AD0FD"/>
<path d="M1177.03 617.6C1177.03 592.969 1168.63 575.875 1151.82 566.317C1135.02 556.391 1116.39 551.428 1095.94 551.428C1074.75 551.428 1055.57 556.391 1038.41 566.317C1021.6 575.875 1013.2 592.969 1013.2 617.6V656.751L958.404 664.471V609.88C958.404 586.352 964.435 566.134 976.491 549.222C988.54 531.944 1004.98 518.894 1025.8 510.071C1046.99 500.881 1070.37 496.285 1095.94 496.285C1121.14 496.285 1143.97 500.881 1164.43 510.071C1185.25 518.894 1201.69 531.944 1213.75 549.222C1225.8 566.134 1231.83 586.352 1231.83 609.88V772H1177.03V617.6ZM1013.2 601.057V772H958.404V601.057H1013.2ZM1451 716.857V772H1396.2V716.857H1451ZM1395.66 617.6C1395.66 592.969 1387.26 575.875 1370.45 566.317C1353.65 556.391 1335.02 551.428 1314.57 551.428C1293.38 551.428 1274.2 556.391 1257.03 566.317C1239.86 575.875 1231.28 592.969 1231.28 617.6V656.751L1177.03 664.471V609.88C1177.03 586.352 1183.06 566.134 1195.11 549.222C1207.17 531.944 1223.6 518.894 1244.43 510.071C1265.61 500.881 1288.99 496.285 1314.57 496.285C1339.77 496.285 1362.78 500.881 1383.6 510.071C1404.43 518.894 1420.86 531.944 1432.92 549.222C1444.97 566.134 1451 586.352 1451 609.88V716.857H1395.66V617.6ZM975.389 496.285V551.428H920.6V496.285H975.389Z" fill="#5AD0FD"/>
</g>
<g filter="url(#filter2_f_19_35)">
<path d="M254.793 465.285V741H200V465.285H254.793ZM254.793 355V410.143H200V355H254.793Z" fill="#1EFB75"/>
<path d="M575.314 630.714V685.857H520.52V630.714H575.314ZM410.933 410.143V741H395.044C383.72 741 374.404 737.324 367.098 729.971C359.793 722.619 356.14 713.245 356.14 701.848V410.143H410.933ZM520.52 685.857V741H410.933V685.857H520.52ZM520.52 465.285V520.428H301.347V465.285H520.52Z" fill="#1EFB75"/>
<path d="M824.795 465.285H879.592V741H824.795V465.285ZM605.621 572.814C605.621 549.286 611.648 529.067 623.704 512.157C635.758 495.247 652.196 482.38 673.017 473.557C694.204 464.367 717.583 459.771 743.153 459.771C768.358 459.771 791.371 464.367 812.193 473.557C833.015 482.38 849.453 495.247 861.507 512.157C873.561 529.067 879.592 549.286 879.592 572.814V627.406C879.592 650.933 873.561 671.336 861.507 688.614C849.453 705.524 833.015 718.575 812.193 727.765C791.371 736.588 768.358 741 743.153 741C717.583 741 694.204 736.588 673.017 727.765C652.196 718.575 635.758 705.524 623.704 688.614C611.648 671.336 605.621 650.933 605.621 627.406V572.814ZM660.415 619.685C660.415 644.316 668.816 661.594 685.62 671.52C702.789 681.078 721.966 685.857 743.153 685.857C763.609 685.857 782.239 681.078 799.042 671.52C815.846 661.594 824.248 644.316 824.248 619.685V580.534C824.248 555.903 815.846 538.809 799.042 529.251C782.604 519.694 763.974 514.914 743.153 514.914C721.966 514.914 702.789 519.694 685.62 529.251C668.816 538.809 660.415 555.903 660.415 580.534V619.685ZM770.002 572.814V627.957H715.208V572.814H770.002Z" fill="#1EFB75"/>
<path d="M1177.03 586.6C1177.03 561.969 1168.63 544.875 1151.82 535.317C1135.02 525.391 1116.39 520.428 1095.94 520.428C1074.75 520.428 1055.57 525.391 1038.41 535.317C1021.6 544.875 1013.2 561.969 1013.2 586.6V625.751L958.404 633.471V578.88C958.404 555.352 964.435 535.134 976.491 518.222C988.54 500.944 1004.98 487.894 1025.8 479.071C1046.99 469.881 1070.37 465.285 1095.94 465.285C1121.14 465.285 1143.97 469.881 1164.43 479.071C1185.25 487.894 1201.69 500.944 1213.75 518.222C1225.8 535.134 1231.83 555.352 1231.83 578.88V741H1177.03V586.6ZM1013.2 570.057V741H958.404V570.057H1013.2ZM1451 685.857V741H1396.2V685.857H1451ZM1395.66 586.6C1395.66 561.969 1387.26 544.875 1370.45 535.317C1353.65 525.391 1335.02 520.428 1314.57 520.428C1293.38 520.428 1274.2 525.391 1257.03 535.317C1239.86 544.875 1231.28 561.969 1231.28 586.6V625.751L1177.03 633.471V578.88C1177.03 555.352 1183.06 535.134 1195.11 518.222C1207.17 500.944 1223.6 487.894 1244.43 479.071C1265.61 469.881 1288.99 465.285 1314.57 465.285C1339.77 465.285 1362.78 469.881 1383.6 479.071C1404.43 487.894 1420.86 500.944 1432.92 518.222C1444.97 535.134 1451 555.352 1451 578.88V685.857H1395.66V586.6ZM975.389 465.285V520.428H920.6V465.285H975.389Z" fill="#1EFB75"/>
</g>
<g filter="url(#filter3_f_19_35)">
<path d="M254.793 434.285V710H200V434.285H254.793ZM254.793 324V379.143H200V324H254.793Z" fill="#F1D626"/>
<path d="M575.314 599.714V654.857H520.52V599.714H575.314ZM410.933 379.143V710H395.044C383.72 710 374.404 706.324 367.098 698.971C359.793 691.619 356.14 682.245 356.14 670.848V379.143H410.933ZM520.52 654.857V710H410.933V654.857H520.52ZM520.52 434.285V489.428H301.347V434.285H520.52Z" fill="#F1D626"/>
<path d="M824.795 434.285H879.592V710H824.795V434.285ZM605.621 541.814C605.621 518.286 611.648 498.067 623.704 481.157C635.758 464.247 652.196 451.38 673.017 442.557C694.204 433.367 717.583 428.771 743.153 428.771C768.358 428.771 791.371 433.367 812.193 442.557C833.015 451.38 849.453 464.247 861.507 481.157C873.561 498.067 879.592 518.286 879.592 541.814V596.406C879.592 619.933 873.561 640.336 861.507 657.614C849.453 674.524 833.015 687.575 812.193 696.765C791.371 705.588 768.358 710 743.153 710C717.583 710 694.204 705.588 673.017 696.765C652.196 687.575 635.758 674.524 623.704 657.614C611.648 640.336 605.621 619.933 605.621 596.406V541.814ZM660.415 588.685C660.415 613.316 668.816 630.594 685.62 640.52C702.789 650.078 721.966 654.857 743.153 654.857C763.609 654.857 782.239 650.078 799.042 640.52C815.846 630.594 824.248 613.316 824.248 588.685V549.534C824.248 524.903 815.846 507.809 799.042 498.251C782.604 488.694 763.974 483.914 743.153 483.914C721.966 483.914 702.789 488.694 685.62 498.251C668.816 507.809 660.415 524.903 660.415 549.534V588.685ZM770.002 541.814V596.957H715.208V541.814H770.002Z" fill="#F1D626"/>
<path d="M1177.03 555.6C1177.03 530.969 1168.63 513.875 1151.82 504.317C1135.02 494.391 1116.39 489.428 1095.94 489.428C1074.75 489.428 1055.57 494.391 1038.41 504.317C1021.6 513.875 1013.2 530.969 1013.2 555.6V594.751L958.404 602.471V547.88C958.404 524.352 964.435 504.134 976.491 487.222C988.54 469.944 1004.98 456.894 1025.8 448.071C1046.99 438.881 1070.37 434.285 1095.94 434.285C1121.14 434.285 1143.97 438.881 1164.43 448.071C1185.25 456.894 1201.69 469.944 1213.75 487.222C1225.8 504.134 1231.83 524.352 1231.83 547.88V710H1177.03V555.6ZM1013.2 539.057V710H958.404V539.057H1013.2ZM1451 654.857V710H1396.2V654.857H1451ZM1395.66 555.6C1395.66 530.969 1387.26 513.875 1370.45 504.317C1353.65 494.391 1335.02 489.428 1314.57 489.428C1293.38 489.428 1274.2 494.391 1257.03 504.317C1239.86 513.875 1231.28 530.969 1231.28 555.6V594.751L1177.03 602.471V547.88C1177.03 524.352 1183.06 504.134 1195.11 487.222C1207.17 469.944 1223.6 456.894 1244.43 448.071C1265.61 438.881 1288.99 434.285 1314.57 434.285C1339.77 434.285 1362.78 438.881 1383.6 448.071C1404.43 456.894 1420.86 469.944 1432.92 487.222C1444.97 504.134 1451 524.352 1451 547.88V654.857H1395.66V555.6ZM975.389 434.285V489.428H920.6V434.285H975.389Z" fill="#F1D626"/>
</g>
<g filter="url(#filter4_f_19_35)">
<path d="M254.793 403.285V679H200V403.285H254.793ZM254.793 293V348.143H200V293H254.793Z" fill="#FC6D96"/>
<path d="M575.314 568.714V623.857H520.52V568.714H575.314ZM410.933 348.143V679H395.044C383.72 679 374.404 675.324 367.098 667.971C359.793 660.619 356.14 651.245 356.14 639.848V348.143H410.933ZM520.52 623.857V679H410.933V623.857H520.52ZM520.52 403.285V458.428H301.347V403.285H520.52Z" fill="#FC6D96"/>
<path d="M824.795 403.285H879.592V679H824.795V403.285ZM605.621 510.814C605.621 487.286 611.648 467.067 623.704 450.157C635.758 433.247 652.196 420.38 673.017 411.557C694.204 402.367 717.583 397.771 743.153 397.771C768.358 397.771 791.371 402.367 812.193 411.557C833.015 420.38 849.453 433.247 861.507 450.157C873.561 467.067 879.592 487.286 879.592 510.814V565.406C879.592 588.933 873.561 609.336 861.507 626.614C849.453 643.524 833.015 656.575 812.193 665.765C791.371 674.588 768.358 679 743.153 679C717.583 679 694.204 674.588 673.017 665.765C652.196 656.575 635.758 643.524 623.704 626.614C611.648 609.336 605.621 588.933 605.621 565.406V510.814ZM660.415 557.685C660.415 582.316 668.816 599.594 685.62 609.52C702.789 619.078 721.966 623.857 743.153 623.857C763.609 623.857 782.239 619.078 799.042 609.52C815.846 599.594 824.248 582.316 824.248 557.685V518.534C824.248 493.903 815.846 476.809 799.042 467.251C782.604 457.694 763.974 452.914 743.153 452.914C721.966 452.914 702.789 457.694 685.62 467.251C668.816 476.809 660.415 493.903 660.415 518.534V557.685ZM770.002 510.814V565.957H715.208V510.814H770.002Z" fill="#FC6D96"/>
<path d="M1177.03 524.6C1177.03 499.969 1168.63 482.875 1151.82 473.317C1135.02 463.391 1116.39 458.428 1095.94 458.428C1074.75 458.428 1055.57 463.391 1038.41 473.317C1021.6 482.875 1013.2 499.969 1013.2 524.6V563.751L958.404 571.471V516.88C958.404 493.352 964.435 473.134 976.491 456.222C988.54 438.944 1004.98 425.894 1025.8 417.071C1046.99 407.881 1070.37 403.285 1095.94 403.285C1121.14 403.285 1143.97 407.881 1164.43 417.071C1185.25 425.894 1201.69 438.944 1213.75 456.222C1225.8 473.134 1231.83 493.352 1231.83 516.88V679H1177.03V524.6ZM1013.2 508.057V679H958.404V508.057H1013.2ZM1451 623.857V679H1396.2V623.857H1451ZM1395.66 524.6C1395.66 499.969 1387.26 482.875 1370.45 473.317C1353.65 463.391 1335.02 458.428 1314.57 458.428C1293.38 458.428 1274.2 463.391 1257.03 473.317C1239.86 482.875 1231.28 499.969 1231.28 524.6V563.751L1177.03 571.471V516.88C1177.03 493.352 1183.06 473.134 1195.11 456.222C1207.17 438.944 1223.6 425.894 1244.43 417.071C1265.61 407.881 1288.99 403.285 1314.57 403.285C1339.77 403.285 1362.78 407.881 1383.6 417.071C1404.43 425.894 1420.86 438.944 1432.92 456.222C1444.97 473.134 1451 493.352 1451 516.88V623.857H1395.66V524.6ZM975.389 403.285V458.428H920.6V403.285H975.389Z" fill="#FC6D96"/>
</g>
<g filter="url(#filter5_f_19_35)">
<path d="M254.793 372.285V648H200V372.285H254.793ZM254.793 262V317.143H200V262H254.793Z" fill="#9B6FFB"/>
<path d="M575.314 537.714V592.857H520.52V537.714H575.314ZM410.933 317.143V648H395.044C383.72 648 374.404 644.324 367.098 636.971C359.793 629.619 356.14 620.245 356.14 608.848V317.143H410.933ZM520.52 592.857V648H410.933V592.857H520.52ZM520.52 372.285V427.428H301.347V372.285H520.52Z" fill="#9B6FFB"/>
<path d="M824.795 372.285H879.592V648H824.795V372.285ZM605.621 479.814C605.621 456.286 611.648 436.067 623.704 419.157C635.758 402.247 652.196 389.38 673.017 380.557C694.204 371.367 717.583 366.771 743.153 366.771C768.358 366.771 791.371 371.367 812.193 380.557C833.015 389.38 849.453 402.247 861.507 419.157C873.561 436.067 879.592 456.286 879.592 479.814V534.406C879.592 557.933 873.561 578.336 861.507 595.614C849.453 612.524 833.015 625.575 812.193 634.765C791.371 643.588 768.358 648 743.153 648C717.583 648 694.204 643.588 673.017 634.765C652.196 625.575 635.758 612.524 623.704 595.614C611.648 578.336 605.621 557.933 605.621 534.406V479.814ZM660.415 526.685C660.415 551.316 668.816 568.594 685.62 578.52C702.789 588.078 721.966 592.857 743.153 592.857C763.609 592.857 782.239 588.078 799.042 578.52C815.846 568.594 824.248 551.316 824.248 526.685V487.534C824.248 462.903 815.846 445.809 799.042 436.251C782.604 426.694 763.974 421.914 743.153 421.914C721.966 421.914 702.789 426.694 685.62 436.251C668.816 445.809 660.415 462.903 660.415 487.534V526.685ZM770.002 479.814V534.957H715.208V479.814H770.002Z" fill="#9B6FFB"/>
<path d="M1177.03 493.6C1177.03 468.969 1168.63 451.875 1151.82 442.317C1135.02 432.391 1116.39 427.428 1095.94 427.428C1074.75 427.428 1055.57 432.391 1038.41 442.317C1021.6 451.875 1013.2 468.969 1013.2 493.6V532.751L958.404 540.471V485.88C958.404 462.352 964.435 442.134 976.491 425.222C988.54 407.944 1004.98 394.894 1025.8 386.071C1046.99 376.881 1070.37 372.285 1095.94 372.285C1121.14 372.285 1143.97 376.881 1164.43 386.071C1185.25 394.894 1201.69 407.944 1213.75 425.222C1225.8 442.134 1231.83 462.352 1231.83 485.88V648H1177.03V493.6ZM1013.2 477.057V648H958.404V477.057H1013.2ZM1451 592.857V648H1396.2V592.857H1451ZM1395.66 493.6C1395.66 468.969 1387.26 451.875 1370.45 442.317C1353.65 432.391 1335.02 427.428 1314.57 427.428C1293.38 427.428 1274.2 432.391 1257.03 442.317C1239.86 451.875 1231.28 468.969 1231.28 493.6V532.751L1177.03 540.471V485.88C1177.03 462.352 1183.06 442.134 1195.11 425.222C1207.17 407.944 1223.6 394.894 1244.43 386.071C1265.61 376.881 1288.99 372.285 1314.57 372.285C1339.77 372.285 1362.78 376.881 1383.6 386.071C1404.43 394.894 1420.86 407.944 1432.92 425.222C1444.97 442.134 1451 462.352 1451 485.88V592.857H1395.66V493.6ZM975.389 372.285V427.428H920.6V372.285H975.389Z" fill="#9B6FFB"/>
</g>
<g filter="url(#filter6_f_19_35)">
<path d="M254.793 341.285V617H200V341.285H254.793ZM254.793 231V286.143H200V231H254.793Z" fill="#7CDFFB"/>
<path d="M575.314 506.714V561.857H520.52V506.714H575.314ZM410.933 286.143V617H395.044C383.72 617 374.404 613.324 367.098 605.971C359.793 598.619 356.14 589.245 356.14 577.848V286.143H410.933ZM520.52 561.857V617H410.933V561.857H520.52ZM520.52 341.285V396.428H301.347V341.285H520.52Z" fill="#7CDFFB"/>
<path d="M824.795 341.285H879.592V617H824.795V341.285ZM605.621 448.814C605.621 425.286 611.648 405.067 623.704 388.157C635.758 371.247 652.196 358.38 673.017 349.557C694.204 340.367 717.583 335.771 743.153 335.771C768.358 335.771 791.371 340.367 812.193 349.557C833.015 358.38 849.453 371.247 861.507 388.157C873.561 405.067 879.592 425.286 879.592 448.814V503.406C879.592 526.933 873.561 547.336 861.507 564.614C849.453 581.524 833.015 594.575 812.193 603.765C791.371 612.588 768.358 617 743.153 617C717.583 617 694.204 612.588 673.017 603.765C652.196 594.575 635.758 581.524 623.704 564.614C611.648 547.336 605.621 526.933 605.621 503.406V448.814ZM660.415 495.685C660.415 520.316 668.816 537.594 685.62 547.52C702.789 557.078 721.966 561.857 743.153 561.857C763.609 561.857 782.239 557.078 799.042 547.52C815.846 537.594 824.248 520.316 824.248 495.685V456.534C824.248 431.903 815.846 414.809 799.042 405.251C782.604 395.694 763.974 390.914 743.153 390.914C721.966 390.914 702.789 395.694 685.62 405.251C668.816 414.809 660.415 431.903 660.415 456.534V495.685ZM770.002 448.814V503.957H715.208V448.814H770.002Z" fill="#7CDFFB"/>
<path d="M1177.03 462.6C1177.03 437.969 1168.63 420.875 1151.82 411.317C1135.02 401.391 1116.39 396.428 1095.94 396.428C1074.75 396.428 1055.57 401.391 1038.41 411.317C1021.6 420.875 1013.2 437.969 1013.2 462.6V501.751L958.404 509.471V454.88C958.404 431.352 964.435 411.134 976.491 394.222C988.54 376.944 1004.98 363.894 1025.8 355.071C1046.99 345.881 1070.37 341.285 1095.94 341.285C1121.14 341.285 1143.97 345.881 1164.43 355.071C1185.25 363.894 1201.69 376.944 1213.75 394.222C1225.8 411.134 1231.83 431.352 1231.83 454.88V617H1177.03V462.6ZM1013.2 446.057V617H958.404V446.057H1013.2ZM1451 561.857V617H1396.2V561.857H1451ZM1395.66 462.6C1395.66 437.969 1387.26 420.875 1370.45 411.317C1353.65 401.391 1335.02 396.428 1314.57 396.428C1293.38 396.428 1274.2 401.391 1257.03 411.317C1239.86 420.875 1231.28 437.969 1231.28 462.6V501.751L1177.03 509.471V454.88C1177.03 431.352 1183.06 411.134 1195.11 394.222C1207.17 376.944 1223.6 363.894 1244.43 355.071C1265.61 345.881 1288.99 341.285 1314.57 341.285C1339.77 341.285 1362.78 345.881 1383.6 355.071C1404.43 363.894 1420.86 376.944 1432.92 394.222C1444.97 411.134 1451 431.352 1451 454.88V561.857H1395.66V462.6ZM975.389 341.285V396.428H920.6V341.285H975.389Z" fill="#7CDFFB"/>
</g>
<path d="M254.793 310.285V586H200V310.285H254.793ZM254.793 200V255.143H200V200H254.793Z" fill="white"/>
<path d="M575.314 475.714V530.857H520.52V475.714H575.314ZM410.933 255.143V586H395.044C383.72 586 374.404 582.324 367.098 574.971C359.793 567.619 356.14 558.245 356.14 546.848V255.143H410.933ZM520.52 530.857V586H410.933V530.857H520.52ZM520.52 310.285V365.428H301.347V310.285H520.52Z" fill="white"/>
<path d="M824.795 310.285H879.592V586H824.795V310.285ZM605.621 417.814C605.621 394.286 611.648 374.067 623.704 357.157C635.758 340.247 652.196 327.38 673.017 318.557C694.204 309.367 717.583 304.771 743.153 304.771C768.358 304.771 791.371 309.367 812.193 318.557C833.015 327.38 849.453 340.247 861.507 357.157C873.561 374.067 879.592 394.286 879.592 417.814V472.406C879.592 495.933 873.561 516.336 861.507 533.614C849.453 550.524 833.015 563.575 812.193 572.765C791.371 581.588 768.358 586 743.153 586C717.583 586 694.204 581.588 673.017 572.765C652.196 563.575 635.758 550.524 623.704 533.614C611.648 516.336 605.621 495.933 605.621 472.406V417.814ZM660.415 464.685C660.415 489.316 668.816 506.594 685.62 516.52C702.789 526.078 721.966 530.857 743.153 530.857C763.609 530.857 782.239 526.078 799.042 516.52C815.846 506.594 824.248 489.316 824.248 464.685V425.534C824.248 400.903 815.846 383.809 799.042 374.251C782.604 364.694 763.974 359.914 743.153 359.914C721.966 359.914 702.789 364.694 685.62 374.251C668.816 383.809 660.415 400.903 660.415 425.534V464.685ZM770.002 417.814V472.957H715.208V417.814H770.002Z" fill="white"/>
<path d="M1177.03 431.6C1177.03 406.969 1168.63 389.875 1151.82 380.317C1135.02 370.391 1116.39 365.428 1095.94 365.428C1074.75 365.428 1055.57 370.391 1038.41 380.317C1021.6 389.875 1013.2 406.969 1013.2 431.6V470.751L958.404 478.471V423.88C958.404 400.352 964.435 380.134 976.491 363.222C988.54 345.944 1004.98 332.894 1025.8 324.071C1046.99 314.881 1070.37 310.285 1095.94 310.285C1121.14 310.285 1143.97 314.881 1164.43 324.071C1185.25 332.894 1201.69 345.944 1213.75 363.222C1225.8 380.134 1231.83 400.352 1231.83 423.88V586H1177.03V431.6ZM1013.2 415.057V586H958.404V415.057H1013.2ZM1451 530.857V586H1396.2V530.857H1451ZM1395.66 431.6C1395.66 406.969 1387.26 389.875 1370.45 380.317C1353.65 370.391 1335.02 365.428 1314.57 365.428C1293.38 365.428 1274.2 370.391 1257.03 380.317C1239.86 389.875 1231.28 406.969 1231.28 431.6V470.751L1177.03 478.471V423.88C1177.03 400.352 1183.06 380.134 1195.11 363.222C1207.17 345.944 1223.6 332.894 1244.43 324.071C1265.61 314.881 1288.99 310.285 1314.57 310.285C1339.77 310.285 1362.78 314.881 1383.6 324.071C1404.43 332.894 1420.86 345.944 1432.92 363.222C1444.97 380.134 1451 400.352 1451 423.88V530.857H1395.66V431.6ZM975.389 310.285V365.428H920.6V310.285H975.389Z" fill="white"/>
</g>
<defs>
<filter id="filter0_d_19_35" x="-5" y="0" width="1661" height="972" filterUnits="userSpaceOnUse" color-interpolation-filters="sRGB">
<feFlood flood-opacity="0" result="BackgroundImageFix"/>
<feColorMatrix in="SourceAlpha" type="matrix" values="0 0 0 0 0 0 0 0 0 0 0 0 0 0 0 0 0 0 127 0" result="hardAlpha"/>
<feOffset/>
<feGaussianBlur stdDeviation="100"/>
<feComposite in2="hardAlpha" operator="out"/>
<feColorMatrix type="matrix" values="0 0 0 0 1 0 0 0 0 1 0 0 0 0 1 0 0 0 0.25 0"/>
<feBlend mode="normal" in2="BackgroundImageFix" result="effect1_dropShadow_19_35"/>
<feBlend mode="normal" in="SourceGraphic" in2="effect1_dropShadow_19_35" result="shape"/>
</filter>
<filter id="filter1_f_19_35" x="199" y="385" width="1253" height="388" filterUnits="userSpaceOnUse" color-interpolation-filters="sRGB">
<feFlood flood-opacity="0" result="BackgroundImageFix"/>
<feBlend mode="normal" in="SourceGraphic" in2="BackgroundImageFix" result="shape"/>
<feGaussianBlur stdDeviation="0.5" result="effect1_foregroundBlur_19_35"/>
</filter>
<filter id="filter2_f_19_35" x="199" y="354" width="1253" height="388" filterUnits="userSpaceOnUse" color-interpolation-filters="sRGB">
<feFlood flood-opacity="0" result="BackgroundImageFix"/>
<feBlend mode="normal" in="SourceGraphic" in2="BackgroundImageFix" result="shape"/>
<feGaussianBlur stdDeviation="0.5" result="effect1_foregroundBlur_19_35"/>
</filter>
<filter id="filter3_f_19_35" x="199" y="323" width="1253" height="388" filterUnits="userSpaceOnUse" color-interpolation-filters="sRGB">
<feFlood flood-opacity="0" result="BackgroundImageFix"/>
<feBlend mode="normal" in="SourceGraphic" in2="BackgroundImageFix" result="shape"/>
<feGaussianBlur stdDeviation="0.5" result="effect1_foregroundBlur_19_35"/>
</filter>
<filter id="filter4_f_19_35" x="199" y="292" width="1253" height="388" filterUnits="userSpaceOnUse" color-interpolation-filters="sRGB">
<feFlood flood-opacity="0" result="BackgroundImageFix"/>
<feBlend mode="normal" in="SourceGraphic" in2="BackgroundImageFix" result="shape"/>
<feGaussianBlur stdDeviation="0.5" result="effect1_foregroundBlur_19_35"/>
</filter>
<filter id="filter5_f_19_35" x="199" y="261" width="1253" height="388" filterUnits="userSpaceOnUse" color-interpolation-filters="sRGB">
<feFlood flood-opacity="0" result="BackgroundImageFix"/>
<feBlend mode="normal" in="SourceGraphic" in2="BackgroundImageFix" result="shape"/>
<feGaussianBlur stdDeviation="0.5" result="effect1_foregroundBlur_19_35"/>
</filter>
<filter id="filter6_f_19_35" x="199" y="230" width="1253" height="388" filterUnits="userSpaceOnUse" color-interpolation-filters="sRGB">
<feFlood flood-opacity="0" result="BackgroundImageFix"/>
<feBlend mode="normal" in="SourceGraphic" in2="BackgroundImageFix" result="shape"/>
<feGaussianBlur stdDeviation="0.5" result="effect1_foregroundBlur_19_35"/>
</filter>
</defs>
</svg>
